<?xml version="1.0" ?><svg style="enable-background:new 0 0 64 64;" version="1.1" viewBox="0 0 64 64" xml:space="preserve" xmlns="http://www.w3.org/2000/svg" xmlns:xlink="http://www.w3.org/1999/xlink"><style type="text/css">
	.st0{fill:none;stroke:#000000;stroke-width:2;stroke-linecap:round;stroke-linejoin:round;stroke-miterlimit:10;}
	.st1{fill:none;stroke:#000000;stroke-width:2;stroke-miterlimit:10;}
</style><g id="Layer_1"/><g id="Layer_2"><g><path class="st0" d="M28.6,32.9c-4.1-3.4-6.8-8.5-6.8-14.2c0-3,0.7-5.9,2.1-8.4c-5.9,5.2-10.4,19.9-11.4,28.4"/><path class="st0" d="M30,26.4c-0.5-1.7-0.8-3.5-0.8-5.3c0-3,0.7-5.9,2.1-8.4c-1.9,1.7-3.7,4.5-5.3,7.6"/><path class="st0" d="M16.4,54c-2.6-3.3-4.1-7.5-4.1-12c0-1.7,0.2-3.9,0.6-6.4c1.4,0.3,2.8,0.4,4.3,0.4C29.8,36,40,25.8,40,13.2    c0-3.8-0.9-7.3-2.6-10.5c8.3,7.4,14.4,30.1,14.4,39.2c0,10.9-8.9,19.8-19.8,19.8c-4.5,0-8.6-1.5-11.9-4"/><path class="st0" d="M34.8,53.6c-1.5,0.9-3.1,1.5-4.7,2"/><path class="st0" d="M42.7,24c1.2,5,1.9,9.5,1.9,12.5c0,5.3-2.1,10.1-5.5,13.6"/></g></g></svg>